<?xml version="1.0" encoding="utf-8"?>
<!-- Generator: Adobe Illustrator 16.0.4, SVG Export Plug-In . SVG Version: 6.00 Build 0)  -->
<!DOCTYPE svg PUBLIC "-//W3C//DTD SVG 1.1//EN" "http://www.w3.org/Graphics/SVG/1.1/DTD/svg11.dtd">
<svg version="1.1"
	 id="svg2" inkscape:output_extension="org.inkscape.output.svg.inkscape" sodipodi:docname="heart.svg" inkscape:version="0.48.3.1 r9886" sodipodi:version="0.32" xmlns:dc="http://purl.org/dc/elements/1.1/" xmlns:cc="http://creativecommons.org/ns#" xmlns:rdf="http://www.w3.org/1999/02/22-rdf-syntax-ns#" xmlns:svg="http://www.w3.org/2000/svg" xmlns:sodipodi="http://sodipodi.sourceforge.net/DTD/sodipodi-0.dtd" xmlns:inkscape="http://www.inkscape.org/namespaces/inkscape"
	 xmlns="http://www.w3.org/2000/svg" xmlns:xlink="http://www.w3.org/1999/xlink" x="0px" y="0px" width="512px" height="512px"
	 viewBox="0 0 512 512" enable-background="new 0 0 512 512" xml:space="preserve">
<g id="layer1" transform="translate(-374.21785,-62.236374)" inkscape:groupmode="layer" inkscape:label="Layer 1">
	<path id="path3072" opacity="0.8" fill="#f6f6f6" stroke="#dddddd" stroke-width="3" stroke-miterlimit="10" d="M876.246,169.051
		c23.255,71.851,3.793,144.965-37.219,200.051c-27.071,37.356-59.424,69.552-92.5,97.7c-30.431,28.326-98.531,84.375-116.583,85.932
		c-15.955-3.051-33.857-21.092-46.523-30.377c-71.175-54.105-147.793-119.902-186.642-191.842
		c-32.571-69.065-32.631-154.49,18.062-207.44c65.732-59.259,164.831-47.68,215.103,14.23c13.502-17.515,30.104-31.29,49.808-41.324
		C759.63,64.098,842.727,96.587,876.246,169.051L876.246,169.051z"/>
</g>
</svg>
